<svg width="85" height="114" viewBox="0 0 85 114" fill="none" xmlns="http://www.w3.org/2000/svg">
<path d="M63.1196 11.8185L69.7002 26.2195L64.0156 28.8171L57.435 14.4161C56.9674 13.3928 55.8327 13.3158 55.2264 13.5929C55.0369 13.6795 54.8647 13.8039 54.7099 13.9663L29.835 39.0303C28.1728 40.7061 27.7502 43.1898 28.7373 45.3499L29.8975 47.8891C27.6264 52.042 27.2781 57.1945 29.4081 61.8559L23.0526 47.9475C20.9919 43.4377 21.9227 38.1564 25.402 34.6425L50.2974 9.52328C50.9926 8.83912 51.795 8.28923 52.6288 7.90825C56.4185 6.17652 61.232 7.68765 63.1196 11.8185Z" fill="#70A300"/>
<path d="M96.25 37.9071L100.116 36.1407C102.2 35.1882 103.126 32.7036 102.174 30.6192L101.412 28.9517C97.8269 21.1069 88.4956 17.6289 80.6508 21.2136L37.1445 41.0939C33.9232 42.5659 31.4521 44.9778 29.8958 47.8878C27.6247 52.0407 27.2763 57.1933 29.4063 61.8547L41.0609 87.3597C44.6456 95.2045 53.9769 98.6825 61.8217 95.0978L105.328 75.2175C113.173 71.6328 116.651 62.3015 113.066 54.4567L112.737 53.7367C111.785 51.6523 109.3 50.7262 107.216 51.6787L103.919 53.1853C100.28 54.8477 95.7721 54.205 93.2142 51.1134C91.1022 48.5969 90.7855 45.3975 91.8318 42.6746C92.5759 40.5938 94.1277 38.8768 96.25 37.9071ZM75.1358 46.639L48.6076 58.7612C47.0538 59.4712 45.1765 58.7715 44.4665 57.2177C43.7564 55.6639 44.4562 53.7866 46.01 53.0765L72.5382 40.9544C74.092 40.2444 75.9693 40.9441 76.6793 42.4979C77.3893 44.0517 76.6896 45.929 75.1358 46.639Z" fill="#70A300"/>
</svg>
