<svg width="80" height="88" viewBox="0 0 80 88" fill="none" xmlns="http://www.w3.org/2000/svg">
<path d="M66.7813 25.7188L49.2813 8.21879C48.805 7.75448 48.1651 7.49629 47.5 7.50004H17.5C16.1739 7.50004 14.9021 8.02682 13.9645 8.96451C13.0268 9.90219 12.5 11.174 12.5 12.5V67.5C12.5 68.8261 13.0268 70.0979 13.9645 71.0356C14.9021 71.9733 16.1739 72.5 17.5 72.5H62.5C63.8261 72.5 65.0979 71.9733 66.0355 71.0356C66.9732 70.0979 67.5 68.8261 67.5 67.5V27.5C67.5038 26.8349 67.2456 26.195 66.7813 25.7188ZM47.5 27.5V13.75L61.25 27.5H47.5Z" fill="#E4E5EB"/>
<path d="M60.0156 54.25C57.4592 54.25 54.9532 54.9618 52.7785 56.3058C50.6039 57.6498 48.8464 59.5728 47.7031 61.8594C46.7487 63.749 46.251 65.8362 46.25 67.9531C46.2555 68.275 46.1395 68.5872 45.9253 68.8275C45.711 69.0678 45.4142 69.2186 45.0937 69.25C44.9219 69.2629 44.7492 69.2402 44.5866 69.1832C44.4239 69.1262 44.2748 69.0361 44.1486 68.9188C44.0224 68.8014 43.9219 68.6592 43.8533 68.501C43.7847 68.3429 43.7495 68.1723 43.75 68C43.7506 66.2533 44.0302 64.5179 44.5781 62.8594C44.6147 62.7536 44.6222 62.64 44.5999 62.5303C44.5775 62.4207 44.5261 62.3191 44.4511 62.236C44.3761 62.153 44.2801 62.0917 44.1733 62.0584C44.0665 62.0251 43.9527 62.0212 43.8437 62.0469C41.6764 62.5842 39.7512 63.8315 38.3749 65.59C36.9987 67.3485 36.2507 69.517 36.25 71.75C36.25 77.25 40.9062 81.75 46.3906 81.75H60C63.6467 81.7521 67.1449 80.3054 69.725 77.7282C72.3051 75.1511 73.7557 71.6545 73.7578 68.0078C73.7599 64.3611 72.3132 60.8629 69.736 58.2828C67.1589 55.7027 63.6623 54.2521 60.0156 54.25ZM64.9375 71.6875C64.6976 71.9169 64.3788 72.0455 64.0469 72.0469C63.7194 72.0463 63.4052 71.9173 63.1719 71.6875L60 68.5156V78C60 78.3315 59.8683 78.6495 59.6339 78.8839C59.3995 79.1183 59.0815 79.25 58.75 79.25C58.4185 79.25 58.1005 79.1183 57.8661 78.8839C57.6317 78.6495 57.5 78.3315 57.5 78V68.5156L54.3281 71.6875C54.0903 71.903 53.7788 72.0187 53.458 72.0108C53.1373 72.0029 52.8318 71.872 52.6049 71.6451C52.378 71.4182 52.2471 71.1127 52.2392 70.792C52.2313 70.4712 52.347 70.1597 52.5625 69.9219L57.8594 64.6094C58.0964 64.3746 58.4164 64.243 58.75 64.243C59.0836 64.243 59.4036 64.3746 59.6406 64.6094L64.9375 69.9219C65.1713 70.1562 65.3025 70.4737 65.3025 70.8047C65.3025 71.1357 65.1713 71.4532 64.9375 71.6875Z" fill="url(#paint0_linear_299_18073)"/>
<defs>
<linearGradient id="paint0_linear_299_18073" x1="28.2549" y1="81.75" x2="32.0792" y2="46.0929" gradientUnits="userSpaceOnUse">
<stop stop-color="#70A300"/>
<stop offset="1" stop-color="#C2F949" stop-opacity="0"/>
</linearGradient>
</defs>
</svg>
