<svg width="201" height="200" viewBox="0 0 201 200" fill="none" xmlns="http://www.w3.org/2000/svg">
<g clip-path="url(#clip0_260_17513)">
<rect x="0.5" width="200" height="200" rx="100" fill="#F9FFEB"/>
<g clip-path="url(#clip1_260_17513)">
<path d="M128.348 40.0853C128.348 40.0853 101.628 34.953 43.7234 113.505L87.186 149.975C87.186 149.975 143.712 88.5755 142.446 51.9144L128.348 40.0853Z" fill="#F9F9F9"/>
<path d="M53.0752 121.184L49.1238 125.893L47.5059 124.535L44.3806 128.26L40.5459 125.042L39.0747 126.795L74.9114 156.866L76.658 154.784L72.4652 151.266L74.9936 148.253L73.1439 146.701L77.4169 141.609L53.0752 121.184Z" fill="#F9F9F9"/>
<path d="M91.189 99.8665C99.099 106.504 110.892 105.472 117.529 97.5621C124.166 89.6521 123.135 77.8592 115.225 71.2219C107.315 64.5847 95.5218 65.6164 88.8845 73.5264C82.2472 81.4364 83.279 93.2293 91.189 99.8665Z" fill="url(#paint0_linear_260_17513)"/>
<path d="M92.9875 97.7229C99.5426 103.223 109.316 102.368 114.816 95.8131C120.316 89.258 119.461 79.4851 112.906 73.9847C106.351 68.4843 96.5782 69.3394 91.0778 75.8945C85.5774 82.4496 86.4324 92.2225 92.9875 97.7229Z" fill="white"/>
<path d="M95.8986 94.4953C100.616 98.4536 107.649 97.8383 111.607 93.121C115.566 88.4036 114.95 81.3706 110.233 77.4123C105.516 73.454 98.4826 74.0693 94.5242 78.7866C90.5659 83.504 91.1812 90.537 95.8986 94.4953Z" fill="#70A300"/>
<path d="M51.9198 109.073L29.7353 90.4581C29.1637 89.9813 28.7026 89.386 28.3838 88.7133C28.065 88.0407 27.8962 87.3068 27.889 86.5625C27.8693 83.3236 29.1652 78.1813 37.5536 78.0087C49.8348 77.7551 71.6155 83.4429 71.6155 83.4429L51.9198 109.073Z" fill="url(#paint1_linear_260_17513)"/>
<path d="M90.336 138.484L111.74 156.445C112.295 156.909 112.947 157.245 113.648 157.427C114.348 157.609 115.081 157.633 115.792 157.498C118.93 156.909 123.705 154.686 122.588 146.537C120.953 134.607 112.116 114.607 112.116 114.607L90.336 138.484Z" fill="url(#paint2_linear_260_17513)"/>
<path d="M81.3564 114.087L79.9405 112.899C78.8049 111.946 77.1118 112.094 76.1589 113.23L60.2282 132.216C59.2753 133.351 59.4234 135.044 60.5591 135.997L61.975 137.185C63.1106 138.138 64.8037 137.99 65.7566 136.854L81.6873 117.869C82.6402 116.733 82.492 115.04 81.3564 114.087Z" fill="url(#paint3_linear_260_17513)"/>
<path d="M121.056 41.263L141.592 58.4954C141.671 58.5555 141.763 58.594 141.861 58.6071C141.959 58.6201 142.058 58.6073 142.15 58.5698C142.241 58.5323 142.321 58.4715 142.381 58.3935C142.441 58.3155 142.48 58.223 142.494 58.1253L146.153 34.2127C146.17 34.1237 146.164 34.0319 146.135 33.9462C146.106 33.8605 146.055 33.7837 145.987 33.7235C145.92 33.6632 145.838 33.6215 145.749 33.6024C145.661 33.5833 145.569 33.5874 145.482 33.6143L121.286 40.2945C121.187 40.3202 121.096 40.3724 121.025 40.4456C120.953 40.5187 120.903 40.61 120.879 40.7095C120.855 40.8091 120.859 40.9133 120.89 41.0108C120.922 41.1083 120.979 41.1955 121.056 41.263Z" fill="url(#paint4_linear_260_17513)"/>
<path d="M110.524 90.6052C110.524 90.6052 108.766 95.4966 99.1757 93.9881L110.524 90.6052Z" fill="url(#paint5_linear_260_17513)"/>
</g>
</g>
<defs>
<linearGradient id="paint0_linear_260_17513" x1="70.7609" y1="82.7253" x2="107.005" y2="50.4587" gradientUnits="userSpaceOnUse">
<stop stop-color="#70A300"/>
<stop offset="1" stop-color="#C2F949" stop-opacity="0"/>
</linearGradient>
<linearGradient id="paint1_linear_260_17513" x1="19.317" y1="81.7161" x2="50.3486" y2="53.449" gradientUnits="userSpaceOnUse">
<stop stop-color="#70A300"/>
<stop offset="1" stop-color="#C2F949" stop-opacity="0"/>
</linearGradient>
<linearGradient id="paint2_linear_260_17513" x1="84.8089" y1="133.847" x2="115.953" y2="105.75" gradientUnits="userSpaceOnUse">
<stop stop-color="#70A300"/>
<stop offset="1" stop-color="#C2F949" stop-opacity="0"/>
</linearGradient>
<linearGradient id="paint3_linear_260_17513" x1="57.3244" y1="133.283" x2="89.3107" y2="122.538" gradientUnits="userSpaceOnUse">
<stop stop-color="#70A300"/>
<stop offset="1" stop-color="#C2F949" stop-opacity="0"/>
</linearGradient>
<linearGradient id="paint4_linear_260_17513" x1="116.078" y1="37.0864" x2="136.692" y2="17.539" gradientUnits="userSpaceOnUse">
<stop stop-color="#70A300"/>
<stop offset="1" stop-color="#C2F949" stop-opacity="0"/>
</linearGradient>
<linearGradient id="paint5_linear_260_17513" x1="113.139" y1="96.2053" x2="99.2365" y2="89.6393" gradientUnits="userSpaceOnUse">
<stop stop-color="white" stop-opacity="0"/>
<stop offset="1" stop-color="white"/>
</linearGradient>
<clipPath id="clip0_260_17513">
<rect x="0.5" width="200" height="200" rx="100" fill="white"/>
</clipPath>
<clipPath id="clip1_260_17513">
<rect width="117.271" height="140" fill="white" transform="translate(101 -4) rotate(40)"/>
</clipPath>
</defs>
</svg>
