<svg width="134" height="34" viewBox="0 0 134 34" fill="none" xmlns="http://www.w3.org/2000/svg">
<g clip-path="url(#clip0_2091_13656)">
<path d="M39.0651 25.4576C38.8483 25.4422 38.6664 25.2641 38.5193 24.9235C38.3722 24.5829 38.2561 24.1686 38.171 23.6809C38.0859 23.1932 38.02 22.6666 37.9736 22.1015C37.927 21.5364 37.8924 21.0059 37.8691 20.5105C37.8458 20.0149 37.8265 19.5969 37.8109 19.2563C37.7955 18.9157 37.7722 18.722 37.7412 18.6756C37.5244 18.3504 37.416 18.029 37.416 17.7117C37.416 17.3942 37.4624 17.0923 37.5554 16.806C37.6482 16.5195 37.7528 16.2602 37.8691 16.028C37.9852 15.7958 38.051 15.61 38.0664 15.4706C38.113 15.13 38.1479 14.6964 38.171 14.17C38.1943 13.6436 38.2251 13.1016 38.2638 12.5442C38.3025 11.9868 38.3529 11.4486 38.4147 10.9299C38.4767 10.4112 38.5618 9.98146 38.6702 9.64086C38.794 9.22286 38.9839 8.93635 39.2392 8.78155C39.4947 8.62675 39.754 8.5686 40.0172 8.6073C40.2804 8.646 40.5088 8.76595 40.7025 8.96735C40.896 9.16876 41.0005 9.41656 41.0161 9.71056C41.0315 10.0666 41.0471 10.4848 41.0625 10.9648C41.0779 11.4448 41.0897 11.9171 41.0974 12.3817C41.1051 12.8463 41.1128 13.2643 41.1207 13.6359C41.1284 14.0075 41.1322 14.2553 41.1322 14.3791C41.38 14.2087 41.6122 14.0113 41.829 13.7868C42.0458 13.5623 42.2859 13.303 42.5491 13.0088C42.8123 12.7146 43.1258 12.3932 43.4899 12.0449C43.8538 11.6964 44.3067 11.321 44.8487 10.9184C45.2667 10.6088 45.7197 10.3223 46.2074 10.0591C46.6951 9.79586 47.1869 9.56366 47.6823 9.36226C47.9145 9.28486 48.1236 9.25771 48.3094 9.28101C48.4952 9.30431 48.6305 9.36996 48.7158 9.47836C48.8009 9.58676 48.8281 9.73001 48.7971 9.90811C48.7661 10.0862 48.65 10.2759 48.4488 10.4771C48.139 10.7713 47.7481 11.1352 47.2758 11.5688C46.8035 12.0024 46.3041 12.4591 45.7777 12.9391C45.2513 13.4191 44.7247 13.9106 44.1983 14.4139C43.6719 14.917 43.1996 15.3932 42.7813 15.8424C42.3633 16.2914 42.0304 16.694 41.7826 17.0502C41.5348 17.4064 41.4187 17.6773 41.4343 17.8631C41.4807 18.2657 41.6047 18.6258 41.8059 18.9431C42.0073 19.2606 42.2318 19.6206 42.4794 20.023C42.6498 20.2862 42.8587 20.534 43.1065 20.7662C43.3544 20.9984 43.6253 21.1804 43.9195 21.3121C44.2137 21.4438 44.5273 21.5094 44.8602 21.5094C45.1931 21.5094 45.5299 21.401 45.8705 21.1842C46.3505 20.89 46.7956 20.7622 47.2059 20.8011C47.6162 20.8398 47.957 20.9674 48.2279 21.1842C48.4988 21.401 48.6692 21.6565 48.7389 21.9507C48.8086 22.2449 48.7505 22.4927 48.5647 22.6939C48.0073 23.2823 47.4653 23.6849 46.9389 23.9017C46.4125 24.1185 45.9053 24.1959 45.4176 24.1339C44.9299 24.0719 44.4615 23.9017 44.0125 23.6229C43.5635 23.3441 43.1375 23.0035 42.7349 22.6009C42.3323 22.1983 41.9607 21.7609 41.6201 21.2886C41.2795 20.8163 40.9697 20.3557 40.6911 19.9067C40.6601 19.8601 40.637 19.9649 40.6214 20.2202C40.606 20.4757 40.5866 20.8124 40.5633 21.2306C40.54 21.6486 40.4974 22.1055 40.4354 22.6009C40.3734 23.0963 40.2883 23.5609 40.1799 23.9945C40.0715 24.4281 39.9283 24.7843 39.7502 25.0629C39.5721 25.3417 39.3437 25.4732 39.0651 25.4578V25.4576Z" fill="white"/>
<path d="M60.8974 8.26923C60.9438 7.99043 61.1065 7.83563 61.3851 7.80463C61.6639 7.77363 61.9581 7.83563 62.2677 7.99043C62.5773 8.14543 62.8638 8.36608 63.127 8.65238C63.3902 8.93888 63.5296 9.25233 63.545 9.59314C63.5604 9.94914 63.576 10.3132 63.5914 10.6848C63.6068 11.0564 63.6224 11.3893 63.638 11.6835C63.6534 12.0395 63.669 12.3727 63.6844 12.6823C64.2108 12.6359 64.6754 12.6203 65.078 12.6359C65.4342 12.6513 65.7515 12.6979 66.0303 12.7753C66.3091 12.8527 66.4483 12.9921 66.4483 13.1933C66.4483 13.4101 66.3128 13.5959 66.0419 13.7507C65.771 13.9055 65.4652 14.0372 65.1244 14.1454C64.7218 14.2692 64.2728 14.3776 63.7774 14.4706C63.8084 15.508 63.8394 16.5144 63.8702 17.49C63.8856 18.3416 63.8897 19.2321 63.8818 20.1611C63.8741 21.0901 63.8392 21.9032 63.7772 22.6C63.6998 23.2968 63.5799 23.8078 63.4172 24.133C63.2545 24.4582 63.0727 24.6673 62.8713 24.7601C62.6701 24.8531 62.461 24.8724 62.2442 24.8183C62.0274 24.7642 61.8262 24.6983 61.6402 24.6209C61.5474 24.5899 61.4621 24.4274 61.3847 24.1332C61.3073 23.839 61.2453 23.4597 61.1989 22.9951C61.1525 22.5305 61.1138 22.008 61.0828 21.4273C61.0518 20.8466 61.0287 20.2543 61.0131 19.6505C60.9667 18.2259 60.9434 16.6311 60.9434 14.8659C60.5254 14.9587 60.1382 15.0053 59.7822 15.0053C59.4726 15.0053 59.1861 14.955 58.9229 14.8543C58.6597 14.7536 58.497 14.564 58.4352 14.2852C58.3886 14.0684 58.4854 13.8749 58.7255 13.7045C58.9656 13.5341 59.2404 13.387 59.55 13.2632C59.9062 13.1238 60.3242 13 60.8042 12.8916V12.52C60.8042 12.4116 60.808 12.2993 60.8157 12.1832C60.8234 12.0671 60.8273 11.9703 60.8273 11.8929C60.8273 11.2734 60.8196 10.7701 60.804 10.3831C60.7886 9.99594 60.7807 9.67479 60.7807 9.41929C60.7807 9.16379 60.7884 8.95469 60.804 8.79219C60.8196 8.62969 60.8506 8.45544 60.897 8.26943L60.8974 8.26923Z" fill="white"/>
<path d="M72.5322 15.1668C72.4858 15.368 72.3541 15.5346 72.1373 15.6663C71.9205 15.798 71.6727 15.9333 71.3941 16.0727C71.1153 16.2121 70.829 16.3669 70.5348 16.5373C70.2406 16.7077 69.9928 16.932 69.7916 17.2108C69.4818 17.66 69.2652 18.1941 69.1412 18.8135C69.0174 19.4329 68.9592 20.0252 68.9669 20.5903C68.9746 21.1554 69.0443 21.6433 69.176 22.0536C69.3077 22.4639 69.4741 22.6692 69.6755 22.6692C69.9231 22.6692 70.1826 22.5531 70.4535 22.3209C70.7244 22.0887 70.9684 21.8214 71.1852 21.5195C71.402 21.2176 71.5799 20.9078 71.7193 20.5905C71.8587 20.273 71.9284 20.0292 71.9284 19.8588C71.9284 19.6884 71.9207 19.4524 71.9051 19.1505C71.8897 18.8486 71.8935 18.5505 71.9166 18.2563C71.9399 17.9621 71.9863 17.7066 72.056 17.4898C72.1257 17.273 72.2457 17.1569 72.4161 17.1415C72.5865 17.1261 72.7915 17.0874 73.0317 17.0254C73.2718 16.9634 73.5001 16.9557 73.7169 17.0021C73.9337 17.0485 74.108 17.1995 74.2395 17.455C74.3712 17.7105 74.4214 18.1479 74.3904 18.7673C74.344 20.0215 74.406 20.97 74.5762 21.6125C74.7466 22.2552 75.0793 22.6307 75.5749 22.7391C75.9155 22.8011 76.2215 22.7196 76.4924 22.4951C76.7633 22.2706 77.0072 22.019 77.224 21.7402C77.4408 21.4614 77.6266 21.2097 77.7814 20.9852C77.9362 20.7607 78.0602 20.6715 78.153 20.7179C78.2614 20.7645 78.3001 20.958 78.2691 21.2986C78.2381 21.6392 78.122 22.0224 77.9208 22.4483C77.7194 22.8742 77.4214 23.2999 77.0267 23.7258C76.6318 24.1517 76.1246 24.4808 75.5052 24.713C75.18 24.8368 74.8781 24.8988 74.5995 24.8988C74.3207 24.8988 74.0693 24.8601 73.8446 24.7827C73.6201 24.7053 73.4227 24.5969 73.2523 24.4575C73.0819 24.3181 72.9271 24.1633 72.7877 23.9929C72.4781 23.6057 72.2303 23.1257 72.0445 22.5529C71.8897 22.9245 71.6729 23.2497 71.3941 23.5285C71.1619 23.7761 70.8598 24.0046 70.4884 24.2135C70.1168 24.4224 69.6599 24.5426 69.1181 24.5736C68.5761 24.589 68.0651 24.4188 67.5851 24.0626C67.1051 23.7066 66.7217 23.2264 66.4354 22.6226C66.1489 22.0188 65.9941 21.3179 65.9708 20.5206C65.9475 19.7231 66.1218 18.883 66.4934 18.0004C66.7412 17.4274 67.0664 16.9397 67.469 16.5371C67.8716 16.1345 68.3011 15.8055 68.758 15.55C69.2147 15.2945 69.6716 15.1087 70.1283 14.9926C70.5852 14.8765 70.9955 14.8106 71.3594 14.7952C71.7233 14.7798 72.0175 14.8068 72.242 14.8765C72.4665 14.9462 72.5632 15.043 72.5324 15.1668H72.5322Z" fill="white"/>
<path d="M77.4113 16.5153C77.5043 16.3605 77.6398 16.2173 77.8177 16.0858C77.9958 15.9541 78.1816 15.838 78.3751 15.7373C78.5686 15.6368 78.7623 15.5592 78.9558 15.5051C79.1493 15.4508 79.3082 15.4238 79.432 15.4238C79.494 15.4238 79.5442 15.4858 79.5829 15.6096C79.6216 15.7334 79.6603 15.8961 79.699 16.0973C79.7377 16.2987 79.7649 16.5271 79.7803 16.7826C79.7959 17.0381 79.8113 17.2974 79.8269 17.5606C79.8579 18.18 79.8656 18.8845 79.8502 19.6742C80.0514 19.2715 80.2682 18.8766 80.5006 18.4896C80.7018 18.1644 80.9342 17.8277 81.1974 17.4792C81.4606 17.1307 81.7315 16.8326 82.0103 16.585C82.2735 16.3528 82.5638 16.1747 82.8813 16.0507C83.1988 15.9269 83.52 15.8765 83.8452 15.8998C84.1704 15.9231 84.484 16.043 84.786 16.2598C85.0879 16.4766 85.3549 16.8016 85.5873 17.2354C85.7421 17.5296 85.8582 17.8974 85.9356 18.3387C86.013 18.78 86.0712 19.2444 86.1099 19.7323C86.1486 20.22 86.1873 20.7116 86.226 21.2072C86.2647 21.7026 86.3344 22.1595 86.4349 22.5775C86.5356 22.9955 86.675 23.3517 86.8529 23.6459C87.031 23.9401 87.2903 24.1259 87.6311 24.2033C87.9099 24.2807 88.1847 24.2845 88.4556 24.2148C88.7265 24.1451 88.982 24.0523 89.2221 23.936C89.4622 23.8199 89.6713 23.7192 89.8492 23.6341C90.0273 23.549 90.1549 23.5296 90.2323 23.576C90.2943 23.638 90.2595 23.8082 90.1278 24.087C89.9961 24.3658 89.7793 24.6521 89.4774 24.9463C89.1755 25.2405 88.796 25.4921 88.3393 25.7012C87.8826 25.9101 87.36 25.976 86.7714 25.8986C85.6102 25.7438 84.774 25.1438 84.263 24.0985C83.752 23.0534 83.4578 21.6868 83.3804 19.9989C83.3494 19.3951 83.2758 18.9461 83.1597 18.6519C83.0436 18.3577 82.8927 18.2027 82.7069 18.1873C82.5211 18.1719 82.3081 18.2763 82.0682 18.501C81.8283 18.7255 81.5688 19.0468 81.2902 19.4648C80.965 19.9448 80.7251 20.4249 80.5701 20.9049C80.4153 21.3849 80.3107 21.8339 80.2564 22.2519C80.2023 22.6699 80.1675 23.0417 80.1519 23.3667C80.1365 23.6919 80.0978 23.9318 80.0358 24.0868C79.9584 24.2572 79.7959 24.3733 79.5481 24.4351C79.3003 24.4971 79.0332 24.5281 78.7467 24.5281C78.4602 24.5281 78.1814 24.4971 77.9105 24.4351C77.6396 24.3731 77.4498 24.2957 77.3413 24.2029C77.2793 24.1409 77.2291 23.9204 77.1904 23.5409C77.1517 23.1616 77.1245 22.7047 77.1092 22.1706C77.0938 21.6365 77.0899 21.0635 77.0976 20.4518C77.1053 19.8401 77.1209 19.2596 77.144 18.7099C77.1673 18.1602 77.2022 17.684 77.2486 17.2814C77.2952 16.8788 77.3493 16.6233 77.4111 16.5149L77.4113 16.5153Z" fill="white"/>
<path d="M98.3383 22.321C98.6789 22.1816 98.9421 22.1196 99.1281 22.1352C99.3139 22.1506 99.43 22.2088 99.4764 22.3093C99.5228 22.41 99.5036 22.5376 99.4183 22.6926C99.3332 22.8474 99.1976 22.9945 99.0118 23.1339C98.857 23.2423 98.6674 23.3894 98.4427 23.5752C98.2182 23.761 97.986 23.9584 97.7459 24.1675C97.5058 24.3764 97.2736 24.5816 97.0491 24.783C96.8246 24.9842 96.6349 25.1469 96.4801 25.2707C96.5885 25.9985 96.6505 26.7379 96.6659 27.4888C96.6813 28.2399 96.6349 28.9598 96.5265 29.6489C96.4181 30.338 96.24 30.9728 95.9922 31.5535C95.7444 32.1342 95.4115 32.6104 94.9935 32.982C94.4051 33.5084 93.809 33.8105 93.205 33.8879C92.6012 33.9653 92.0669 33.8646 91.6025 33.5858C91.1379 33.307 90.774 32.8774 90.5108 32.2967C90.2476 31.716 90.1702 31.0307 90.2786 30.2411C90.4024 29.4359 90.654 28.7237 91.0335 28.1043C91.4128 27.4849 91.8116 26.9662 92.2298 26.5482C92.7254 26.0528 93.2595 25.6269 93.8325 25.2707C93.8171 25.1469 93.7859 24.9765 93.7395 24.7597C93.7085 24.5739 93.6544 24.3379 93.577 24.0514C93.4996 23.7649 93.3989 23.3971 93.2751 22.9481C93.1977 22.6849 93.1008 22.4333 92.9847 22.1932C92.8686 21.9533 92.7564 21.748 92.648 21.5778C92.5086 21.3764 92.3771 21.1985 92.2531 21.0435C92.0055 21.3223 91.75 21.5699 91.4866 21.7867C91.2698 21.9725 91.0299 22.1391 90.7665 22.2862C90.5033 22.4333 90.2555 22.5068 90.0233 22.5068C89.7757 22.5068 89.4969 22.3751 89.1871 22.1119C88.8775 21.8487 88.6025 21.5002 88.3626 21.0668C88.1225 20.6332 87.9367 20.1378 87.8052 19.5802C87.6735 19.0228 87.6543 18.4498 87.7471 17.8614C87.8555 17.273 87.9949 16.8007 88.1651 16.4445C88.3355 16.0883 88.5213 15.8058 88.7225 15.5967C88.9239 15.3878 89.1405 15.2367 89.3729 15.1439C89.6051 15.0509 89.8375 14.9812 90.0697 14.9348C90.4103 14.8728 90.8167 14.9194 91.289 15.0742C91.7613 15.229 92.2103 15.4265 92.6362 15.6664C93.0621 15.9065 93.4258 16.1541 93.7277 16.4096C94.0299 16.6651 94.1729 16.8625 94.1575 17.0019C94.1421 17.1413 93.9755 17.1915 93.658 17.1528C93.3405 17.1141 92.9766 17.0639 92.5663 17.0019C92.156 16.9399 91.7534 16.9089 91.3585 16.9089C90.9638 16.9089 90.6889 17.0327 90.5341 17.2805C90.3793 17.5283 90.2553 17.8225 90.1625 18.1631C90.0697 18.5037 90.0115 18.8445 89.9884 19.1851C89.9651 19.5257 89.9846 19.8393 90.0466 20.1258C90.1086 20.4123 90.2247 20.6253 90.3949 20.7645C90.4879 20.8419 90.6155 20.8147 90.778 20.6832C90.9405 20.5515 91.1304 20.389 91.3472 20.1955C91.564 20.002 91.8039 19.8162 92.0673 19.6381C92.3305 19.46 92.6131 19.3516 92.915 19.3129C93.2169 19.2742 93.5304 19.3516 93.8558 19.5451C94.181 19.7386 94.5139 20.1141 94.8545 20.6715C95.0557 20.9967 95.2687 21.3721 95.4932 21.798C95.7177 22.2239 95.9152 22.8316 96.0854 23.6212C96.488 23.3734 96.8673 23.1374 97.2235 22.9129C97.5795 22.6884 97.9513 22.4908 98.3383 22.3206V22.321ZM93.5537 30.8452C93.6465 30.582 93.7046 30.2452 93.7277 29.8347C93.751 29.4244 93.7626 29.0179 93.7626 28.6153C93.7472 28.1507 93.7239 27.663 93.6929 27.152C93.3677 27.4308 93.0812 27.725 92.8336 28.0346C92.6168 28.2978 92.4271 28.6076 92.2644 28.9636C92.1019 29.3198 92.0361 29.6991 92.0671 30.1017C92.0981 30.4887 92.1832 30.7714 92.3226 30.9495C92.462 31.1276 92.6129 31.2283 92.7754 31.2514C92.9379 31.2747 93.0929 31.2437 93.24 31.1586C93.3871 31.0735 93.4917 30.969 93.5537 30.8449V30.8452Z" fill="white"/>
<path d="M97.9906 15.6306C98.3158 15.4758 98.6254 15.3984 98.9197 15.3984C99.2139 15.3984 99.4694 15.4527 99.6862 15.5611C99.903 15.6695 100.073 15.8205 100.197 16.014C100.321 16.2077 100.375 16.4127 100.36 16.6295C100.236 17.636 100.244 18.569 100.383 19.4283C100.523 20.2876 100.708 21.0154 100.941 21.6115C101.173 22.2078 101.417 22.6451 101.672 22.9239C101.928 23.2027 102.102 23.2568 102.195 23.0864C102.288 22.916 102.396 22.5561 102.52 22.0064C102.644 21.4567 102.803 20.8489 102.996 20.1833C103.19 19.5175 103.434 18.8632 103.728 18.2205C104.022 17.578 104.394 17.0785 104.843 16.7223C105.292 16.3661 105.679 16.1726 106.004 16.1416C106.329 16.1106 106.608 16.1803 106.84 16.3505C107.072 16.5209 107.27 16.7647 107.432 17.0822C107.595 17.3997 107.746 17.7208 107.885 18.046C108.025 18.3867 108.153 18.8241 108.269 19.3584C108.385 19.8927 108.509 20.3997 108.64 20.8799C108.772 21.3599 108.911 21.743 109.058 22.0295C109.205 22.316 109.387 22.3819 109.604 22.2269C109.744 22.1185 109.891 21.894 110.045 21.5534C110.2 21.2128 110.367 20.814 110.545 20.3571C110.723 19.9004 110.916 19.4243 111.126 18.9287C111.335 18.433 111.563 17.9763 111.811 17.5583C112.058 17.1403 112.333 16.7995 112.635 16.5363C112.937 16.2731 113.274 16.1491 113.646 16.1647C114.048 16.1801 114.424 16.2847 114.772 16.4784C115.121 16.6719 115.423 16.8964 115.678 17.1519C115.934 17.4074 116.131 17.6667 116.27 17.9302C116.41 18.1934 116.479 18.4102 116.479 18.5804C116.479 18.7508 116.394 18.8397 116.224 18.8476C116.053 18.8553 115.79 18.7275 115.434 18.4643C115.062 18.2011 114.652 18.2823 114.203 18.7082C113.754 19.1341 113.406 19.8966 113.158 20.996C113.034 21.538 112.898 22.0218 112.751 22.4477C112.604 22.8736 112.426 23.2375 112.217 23.5394C112.008 23.8413 111.749 24.0853 111.439 24.2711C111.129 24.4569 110.75 24.573 110.301 24.6194C109.883 24.666 109.496 24.5768 109.14 24.3523C108.784 24.1278 108.462 23.8336 108.176 23.4697C107.889 23.1058 107.649 22.7071 107.456 22.2735C107.262 21.8399 107.134 21.4373 107.072 21.0657C106.995 20.7095 106.929 20.4578 106.875 20.3107C106.821 20.1636 106.767 20.1134 106.712 20.1598C106.658 20.2064 106.592 20.3379 106.515 20.5547C106.438 20.7715 106.329 21.058 106.19 21.414C106.066 21.7702 105.942 22.1264 105.818 22.4824C105.694 22.8386 105.532 23.1674 105.33 23.4695C105.129 23.7714 104.87 24.0425 104.552 24.2824C104.235 24.5225 103.813 24.6966 103.286 24.8052C102.775 24.9136 102.292 24.9097 101.835 24.7936C101.378 24.6775 100.96 24.4956 100.581 24.2478C100.201 24 99.8645 23.7173 99.5703 23.4C99.2761 23.0825 99.036 22.7691 98.8502 22.4593C98.7264 22.2579 98.5869 21.9677 98.4321 21.5882C98.2773 21.2089 98.1303 20.783 97.9909 20.3107C97.8515 19.8384 97.7315 19.3507 97.6308 18.8474C97.5301 18.3441 97.4681 17.8718 97.445 17.4305C97.4217 16.9892 97.4527 16.606 97.538 16.2808C97.6231 15.9556 97.7741 15.7388 97.9909 15.6304L97.9906 15.6306Z" fill="white"/>
<path d="M122.239 15.1668C122.193 15.368 122.061 15.5346 121.844 15.6663C121.628 15.798 121.38 15.9333 121.101 16.0727C120.822 16.2121 120.536 16.3669 120.242 16.5373C119.948 16.7077 119.7 16.932 119.499 17.2108C119.189 17.66 118.972 18.1941 118.848 18.8135C118.724 19.4329 118.666 20.0252 118.674 20.5903C118.682 21.1554 118.751 21.6433 118.883 22.0536C119.015 22.4639 119.181 22.6692 119.383 22.6692C119.63 22.6692 119.89 22.5531 120.161 22.3209C120.431 22.0887 120.675 21.8214 120.892 21.5195C121.109 21.2176 121.287 20.9078 121.426 20.5905C121.566 20.273 121.635 20.0292 121.635 19.8588C121.635 19.6884 121.628 19.4524 121.612 19.1505C121.597 18.8486 121.601 18.5505 121.624 18.2563C121.647 17.9621 121.693 17.7066 121.763 17.4898C121.833 17.273 121.953 17.1569 122.123 17.1415C122.294 17.1261 122.499 17.0874 122.739 17.0254C122.979 16.9634 123.207 16.9557 123.424 17.0021C123.641 17.0485 123.815 17.1995 123.946 17.455C124.078 17.7105 124.128 18.1479 124.097 18.7673C124.051 20.0215 124.113 20.97 124.283 21.6125C124.454 22.2552 124.786 22.6307 125.282 22.7391C125.623 22.8011 125.928 22.7196 126.199 22.4951C126.47 22.2706 126.714 22.019 126.931 21.7402C127.148 21.4614 127.334 21.2097 127.488 20.9852C127.643 20.7607 127.767 20.6715 127.86 20.7179C127.968 20.7645 128.007 20.958 127.976 21.2986C127.945 21.6392 127.829 22.0224 127.628 22.4483C127.426 22.8742 127.128 23.2999 126.734 23.7258C126.339 24.1517 125.832 24.4808 125.212 24.713C124.887 24.8368 124.585 24.8988 124.307 24.8988C124.028 24.8988 123.776 24.8601 123.552 24.7827C123.327 24.7053 123.13 24.5969 122.959 24.4575C122.789 24.3181 122.634 24.1633 122.495 23.9929C122.185 23.6057 121.937 23.1257 121.752 22.5529C121.597 22.9245 121.38 23.2497 121.101 23.5285C120.869 23.7761 120.567 24.0046 120.195 24.2135C119.824 24.4224 119.367 24.5426 118.825 24.5736C118.283 24.589 117.772 24.4188 117.292 24.0626C116.812 23.7066 116.429 23.2264 116.142 22.6226C115.856 22.0188 115.701 21.3179 115.678 20.5206C115.655 19.7231 115.829 18.883 116.2 18.0004C116.448 17.4274 116.773 16.9397 117.176 16.5371C117.579 16.1345 118.008 15.8055 118.465 15.55C118.922 15.2945 119.379 15.1087 119.835 14.9926C120.292 14.8765 120.703 14.8106 121.066 14.7952C121.43 14.7798 121.725 14.8068 121.949 14.8765C122.174 14.9462 122.27 15.043 122.239 15.1668H122.239Z" fill="white"/>
<path d="M55.7177 15.1668C55.6713 15.368 55.5396 15.5346 55.3228 15.6663C55.106 15.798 54.8582 15.9333 54.5796 16.0727C54.3008 16.2121 54.0145 16.3669 53.7203 16.5373C53.4261 16.7077 53.1783 16.932 52.9771 17.2108C52.6673 17.66 52.4507 18.1941 52.3267 18.8135C52.2029 19.4329 52.1448 20.0252 52.1525 20.5903C52.1602 21.1554 52.2299 21.6433 52.3616 22.0536C52.4933 22.4639 52.6596 22.6692 52.861 22.6692C53.1086 22.6692 53.3682 22.5531 53.6391 22.3209C53.91 22.0887 54.1539 21.8214 54.3707 21.5195C54.5875 21.2176 54.7654 20.9078 54.9048 20.5905C55.0442 20.273 55.1139 20.0292 55.1139 19.8588C55.1139 19.6884 55.1062 19.4524 55.0906 19.1505C55.0752 18.8486 55.0791 18.5505 55.1022 18.2563C55.1255 17.9621 55.1719 17.7066 55.2416 17.4898C55.3113 17.273 55.4312 17.1569 55.6016 17.1415C55.772 17.1261 55.9771 17.0874 56.2172 17.0254C56.4573 16.9634 56.6856 16.9557 56.9024 17.0021C57.1192 17.0485 57.2935 17.1995 57.425 17.455C57.5567 17.7105 57.607 18.1479 57.576 18.7673C57.5296 20.0215 57.5916 20.97 57.7618 21.6125C57.9322 22.2552 58.2649 22.6307 58.7605 22.7391C59.1011 22.8011 59.407 22.7196 59.6779 22.4951C59.9488 22.2706 60.1928 22.019 60.4096 21.7402C60.6264 21.4614 60.8122 21.2097 60.967 20.9852C61.1218 20.7607 61.2458 20.6715 61.3386 20.7179C61.447 20.7645 61.4857 20.958 61.4547 21.2986C61.4237 21.6393 61.3076 22.0224 61.1064 22.4483C60.905 22.8742 60.6069 23.2999 60.2122 23.7258C59.8173 24.1517 59.3102 24.4808 58.6908 24.713C58.3656 24.8368 58.0637 24.8988 57.7851 24.8988C57.5063 24.8988 57.2548 24.8601 57.0301 24.7827C56.8056 24.7053 56.6082 24.5969 56.4378 24.4575C56.2674 24.3181 56.1126 24.1633 55.9732 23.9929C55.6636 23.6057 55.4158 23.1257 55.23 22.5529C55.0752 22.9245 54.8584 23.2497 54.5796 23.5285C54.3474 23.7761 54.0453 24.0046 53.6739 24.2135C53.3023 24.4224 52.8454 24.5426 52.3036 24.5736C51.7616 24.589 51.2506 24.4188 50.7706 24.0626C50.2906 23.7066 49.9073 23.2264 49.621 22.6226C49.3345 22.0188 49.1797 21.3179 49.1564 20.5206C49.1331 19.7231 49.3073 18.883 49.6789 18.0004C49.9267 17.4274 50.2519 16.9397 50.6545 16.5371C51.0571 16.1345 51.4867 15.8055 51.9436 15.55C52.4003 15.2945 52.8572 15.1087 53.3139 14.9926C53.7708 14.8765 54.1811 14.8106 54.545 14.7952C54.9089 14.7798 55.2031 14.8068 55.4276 14.8765C55.6521 14.9462 55.7487 15.043 55.7179 15.1668H55.7177Z" fill="white"/>
<path fill-rule="evenodd" clip-rule="evenodd" d="M11.3848 5.1543H14.5667V15.2315L24.155 8.66527L25.9528 11.2906L16.3645 17.8568L14.5667 15.2315V15.2805H11.3848V5.1543ZM22.674 26.0343L24.7122 23.5737L16.3645 17.8568L14.5667 20.4822L22.674 26.0343ZM11.3848 20.4743H14.5667V32.0954H11.3848V20.4743Z" fill="white"/>
<path fill-rule="evenodd" clip-rule="evenodd" d="M11.0865 28.6155C10.9219 28.5594 10.759 28.5019 10.5965 28.4399C5.55883 26.5229 1.97897 21.6481 1.97897 15.9375C1.97897 8.55207 7.96593 2.56511 15.3514 2.56511C22.7368 2.56511 28.7238 8.55207 28.7238 15.9375C28.7238 22.8575 23.1992 28.789 16.403 29.2783C15.9438 29.3113 15.4977 29.3117 15.0389 29.3065L15.0142 31.2856C15.2847 31.2885 15.5499 31.2903 15.8208 31.2822C24.0822 31.034 30.7031 24.259 30.7031 15.9375C30.7031 7.45915 23.8299 0.585938 15.3516 0.585938C6.87321 0.585938 0 7.45915 0 15.9375C0 22.7092 4.38445 28.4571 10.4695 30.4966C10.6583 30.5601 10.7996 30.604 10.9937 30.6464L11.0869 28.6157L11.0865 28.6155Z" fill="#70A300"/>
</g>
<defs>
<clipPath id="clip0_2091_13656">
<rect width="133.534" height="33.3787" fill="white" transform="translate(0 0.585938)"/>
</clipPath>
</defs>
</svg>
