<svg width="242" height="61" viewBox="0 0 242 61" fill="none" xmlns="http://www.w3.org/2000/svg">
<g clip-path="url(#clip0_1930_7612)">
<path d="M70.685 45.2998C70.2928 45.2719 69.9636 44.9496 69.6974 44.3334C69.4312 43.7171 69.2212 42.9674 69.0672 42.0849C68.9132 41.2025 68.794 40.2496 68.7101 39.2272C68.6258 38.2047 68.5631 37.2449 68.5209 36.3485C68.4788 35.4518 68.4439 34.6954 68.4157 34.0792C68.3878 33.4629 68.3457 33.1124 68.2896 33.0284C67.8973 32.44 67.7012 31.8586 67.7012 31.2845C67.7012 30.71 67.7851 30.1637 67.9534 29.6457C68.1213 29.1273 68.3105 28.658 68.5209 28.2379C68.731 27.8178 68.8501 27.4816 68.878 27.2293C68.9623 26.6131 69.0254 25.8285 69.0672 24.876C69.1093 23.9236 69.1651 22.9429 69.2351 21.9343C69.3051 20.9258 69.3964 19.9521 69.5082 19.0135C69.6204 18.075 69.7744 17.2974 69.9705 16.6811C70.1945 15.9248 70.538 15.4064 71 15.1263C71.4623 14.8462 71.9315 14.741 72.4078 14.811C72.884 14.8811 73.2972 15.0981 73.6477 15.4625C73.9978 15.8269 74.1869 16.2753 74.2152 16.8072C74.243 17.4514 74.2713 18.2081 74.2991 19.0766C74.327 19.9451 74.3483 20.7997 74.3622 21.6403C74.3761 22.481 74.39 23.2373 74.4043 23.9097C74.4183 24.582 74.4252 25.0304 74.4252 25.2544C74.8736 24.9461 75.2937 24.589 75.686 24.1828C76.0783 23.7766 76.5127 23.3073 76.989 22.775C77.4652 22.2427 78.0324 21.6612 78.6912 21.031C79.3496 20.4004 80.169 19.7211 81.1497 18.9926C81.906 18.4324 82.7258 17.914 83.6082 17.4378C84.4906 16.9616 85.3804 16.5414 86.2768 16.177C86.6969 16.037 87.0753 15.9879 87.4114 16.03C87.7476 16.0722 87.9925 16.191 88.1469 16.3871C88.3009 16.5832 88.35 16.8424 88.2939 17.1647C88.2378 17.4869 88.0277 17.8301 87.6637 18.1941C87.1031 18.7265 86.3959 19.3849 85.5413 20.1695C84.6868 20.954 83.7831 21.7804 82.8306 22.6489C81.8781 23.5174 80.9253 24.4068 79.9728 25.3175C79.0204 26.2278 78.1658 27.0893 77.4091 27.9021C76.6528 28.7145 76.0504 29.443 75.6021 30.0875C75.1537 30.732 74.9436 31.2221 74.9719 31.5583C75.0558 32.2868 75.2802 32.9383 75.6442 33.5124C76.0087 34.0869 76.4149 34.7383 76.8629 35.4664C77.1712 35.9427 77.5492 36.391 77.9975 36.8112C78.4459 37.2313 78.9361 37.5605 79.4684 37.7988C80.0007 38.0371 80.5682 38.1559 81.1706 38.1559C81.7729 38.1559 82.3822 37.9598 82.9985 37.5675C83.867 37.0352 84.6725 36.8038 85.4149 36.8742C86.1573 36.9443 86.7739 37.1752 87.2641 37.5675C87.7542 37.9598 88.0625 38.4221 88.1887 38.9544C88.3148 39.4867 88.2096 39.9351 87.8734 40.2991C86.8648 41.3638 85.8841 42.0922 84.9317 42.4845C83.9792 42.8768 83.0616 43.0168 82.1791 42.9047C81.2967 42.7925 80.4491 42.4845 79.6367 41.9801C78.8242 41.4756 78.0536 40.8593 77.3252 40.1309C76.5967 39.4024 75.9243 38.6109 75.308 37.7563C74.6918 36.9017 74.1312 36.0684 73.6271 35.256C73.571 35.1717 73.5292 35.3612 73.501 35.8231C73.4732 36.2854 73.438 36.8948 73.3958 37.6515C73.3536 38.4078 73.2766 39.2345 73.1645 40.1309C73.0523 41.0272 72.8983 41.8679 72.7022 42.6524C72.506 43.437 72.2468 44.0815 71.9246 44.5856C71.6023 45.09 71.1891 45.328 70.685 45.3001V45.2998Z" fill="#0A2739"/>
<path d="M110.187 14.2014C110.271 13.6969 110.565 13.4168 111.069 13.3607C111.573 13.3046 112.106 13.4168 112.666 13.6969C113.226 13.9773 113.745 14.3766 114.221 14.8946C114.697 15.413 114.949 15.9802 114.977 16.5968C115.005 17.2409 115.033 17.8998 115.061 18.5721C115.089 19.2445 115.117 19.8468 115.145 20.3792C115.173 21.0233 115.201 21.626 115.229 22.1862C116.182 22.1023 117.022 22.074 117.751 22.1022C118.395 22.1301 118.97 22.2144 119.474 22.3545C119.978 22.4945 120.23 22.7468 120.23 23.1108C120.23 23.5031 119.985 23.8393 119.495 24.1194C119.005 24.3995 118.452 24.6378 117.835 24.8335C117.106 25.0575 116.294 25.2537 115.398 25.4219C115.454 27.299 115.51 29.12 115.566 30.8852C115.593 32.4261 115.601 34.0374 115.586 35.7183C115.573 37.3992 115.509 38.8704 115.397 40.1312C115.257 41.392 115.04 42.3166 114.746 42.905C114.451 43.4934 114.123 43.8718 113.758 44.0397C113.394 44.208 113.016 44.2428 112.623 44.1449C112.231 44.047 111.867 43.9279 111.531 43.7878C111.363 43.7317 111.208 43.4377 111.068 42.9054C110.928 42.3731 110.816 41.6868 110.732 40.8461C110.648 40.0055 110.578 39.06 110.522 38.0093C110.466 36.9586 110.424 35.8869 110.396 34.7944C110.312 32.2168 110.27 29.3311 110.27 26.1372C109.513 26.3051 108.813 26.3894 108.169 26.3894C107.609 26.3894 107.09 26.2985 106.614 26.1163C106.138 25.9341 105.843 25.5909 105.731 25.0865C105.647 24.6942 105.822 24.3441 106.257 24.0358C106.691 23.7274 107.188 23.4613 107.749 23.2373C108.393 22.9851 109.149 22.7611 110.018 22.5649V21.8925C110.018 21.6964 110.025 21.4933 110.039 21.2832C110.053 21.0732 110.06 20.8979 110.06 20.7579C110.06 19.6371 110.046 18.7265 110.018 18.0262C109.99 17.3256 109.975 16.7446 109.975 16.2823C109.975 15.82 109.989 15.4416 110.018 15.1476C110.046 14.8536 110.102 14.5383 110.186 14.2017L110.187 14.2014Z" fill="#0A2739"/>
<path d="M131.241 26.6809C131.157 27.045 130.919 27.3463 130.526 27.5846C130.134 27.8229 129.686 28.0678 129.182 28.3201C128.677 28.5723 128.159 28.8524 127.627 29.1607C127.095 29.469 126.646 29.8749 126.282 30.3793C125.722 31.1921 125.33 32.1585 125.105 33.2793C124.881 34.4 124.776 35.4716 124.79 36.4941C124.804 37.5166 124.93 38.3994 125.168 39.1418C125.407 39.8842 125.708 40.2556 126.072 40.2556C126.52 40.2556 126.99 40.0455 127.48 39.6253C127.97 39.2052 128.411 38.7216 128.804 38.1754C129.196 37.6291 129.518 37.0686 129.77 36.4945C130.022 35.92 130.149 35.4789 130.149 35.1706C130.149 34.8623 130.135 34.4352 130.106 33.8889C130.078 33.3427 130.085 32.8034 130.127 32.2711C130.169 31.7387 130.253 31.2764 130.379 30.8842C130.506 30.4919 130.723 30.2818 131.031 30.254C131.339 30.2261 131.71 30.1561 132.145 30.0439C132.579 29.9317 132.992 29.9178 133.385 30.0017C133.777 30.0857 134.092 30.3588 134.33 30.8211C134.568 31.2834 134.659 32.0749 134.603 33.1957C134.519 35.465 134.631 37.1811 134.939 38.3437C135.248 39.5066 135.85 40.1859 136.746 40.382C137.363 40.4942 137.916 40.3468 138.406 39.9406C138.897 39.5344 139.338 39.0791 139.73 38.5746C140.123 38.0702 140.459 37.6148 140.739 37.2086C141.019 36.8024 141.243 36.6411 141.411 36.7251C141.607 36.8094 141.677 37.1595 141.621 37.7758C141.565 38.3921 141.355 39.0853 140.991 39.8559C140.627 40.6266 140.087 41.3968 139.373 42.1675C138.659 42.9381 137.741 43.5335 136.62 43.9536C136.032 44.1776 135.486 44.2898 134.982 44.2898C134.477 44.2898 134.022 44.2198 133.616 44.0797C133.209 43.9397 132.852 43.7435 132.544 43.4913C132.236 43.2391 131.956 42.959 131.703 42.6506C131.143 41.95 130.695 41.0815 130.359 40.0451C130.078 40.7175 129.686 41.3059 129.182 41.8104C128.762 42.2584 128.215 42.6719 127.543 43.0499C126.871 43.4279 126.044 43.6453 125.064 43.7014C124.083 43.7292 123.158 43.4213 122.29 42.7768C121.421 42.1326 120.728 41.2637 120.21 40.1712C119.691 39.0787 119.411 37.8106 119.369 36.368C119.327 34.925 119.642 33.405 120.314 31.808C120.763 30.7713 121.351 29.8888 122.08 29.1604C122.808 28.4319 123.585 27.8365 124.412 27.3742C125.238 26.9119 126.065 26.5757 126.892 26.3657C127.718 26.1556 128.461 26.0364 129.119 26.0086C129.778 25.9807 130.31 26.0295 130.716 26.1556C131.122 26.2817 131.297 26.4569 131.241 26.6809H131.241Z" fill="#0A2739"/>
<path d="M140.069 29.1205C140.237 28.8404 140.482 28.5812 140.804 28.3432C141.126 28.1049 141.463 27.8949 141.813 27.7127C142.163 27.5308 142.513 27.3904 142.863 27.2925C143.213 27.1943 143.501 27.1455 143.725 27.1455C143.837 27.1455 143.928 27.2577 143.998 27.4817C144.068 27.7057 144.138 28.0001 144.208 28.3641C144.278 28.7285 144.327 29.1417 144.355 29.604C144.383 30.0663 144.411 30.5356 144.439 31.0118C144.495 32.1326 144.509 33.4073 144.482 34.836C144.846 34.1075 145.238 33.393 145.658 32.6927C146.022 32.1043 146.443 31.495 146.919 30.8644C147.395 30.2339 147.886 29.6946 148.39 29.2466C148.866 28.8264 149.392 28.5042 149.966 28.2798C150.541 28.0558 151.122 27.9645 151.71 28.0067C152.299 28.0488 152.866 28.2659 153.412 28.6582C153.959 29.0504 154.442 29.6385 154.862 30.4234C155.142 30.9557 155.352 31.6211 155.492 32.4196C155.632 33.2181 155.738 34.0584 155.808 34.9412C155.878 35.8236 155.948 36.713 156.018 37.6098C156.088 38.5061 156.214 39.3329 156.396 40.0892C156.578 40.8455 156.83 41.49 157.152 42.0223C157.474 42.5547 157.944 42.8909 158.56 43.0309C159.065 43.1709 159.562 43.1779 160.052 43.0518C160.542 42.9257 161.004 42.7578 161.439 42.5473C161.873 42.3373 162.252 42.1551 162.574 42.0011C162.896 41.8471 163.127 41.8119 163.267 41.8959C163.379 42.008 163.316 42.316 163.078 42.8205C162.839 43.3249 162.447 43.8429 161.901 44.3753C161.355 44.9076 160.668 45.3629 159.842 45.7413C159.015 46.1193 158.07 46.2384 157.005 46.0984C154.904 45.8183 153.391 44.7327 152.466 42.8414C151.541 40.9504 151.009 38.4776 150.869 35.4237C150.813 34.3311 150.68 33.5187 150.47 32.9864C150.26 32.4541 149.987 32.1736 149.65 32.1458C149.314 32.1179 148.929 32.3067 148.495 32.7133C148.061 33.1195 147.591 33.7009 147.087 34.4573C146.499 35.3258 146.065 36.1943 145.784 37.0628C145.504 37.9313 145.315 38.7437 145.217 39.5C145.119 40.2564 145.056 40.9291 145.027 41.5171C145 42.1056 144.93 42.5396 144.817 42.8201C144.677 43.1284 144.383 43.3385 143.935 43.4503C143.487 43.5625 143.003 43.6186 142.485 43.6186C141.967 43.6186 141.462 43.5625 140.972 43.4503C140.482 43.3381 140.138 43.1981 139.942 43.0302C139.83 42.918 139.739 42.5191 139.669 41.8324C139.599 41.1461 139.55 40.3194 139.522 39.353C139.494 38.3866 139.487 37.3498 139.501 36.243C139.515 35.1362 139.543 34.0859 139.585 33.0913C139.627 32.0966 139.69 31.2351 139.774 30.5066C139.859 29.7782 139.956 29.3159 140.068 29.1197L140.069 29.1205Z" fill="#0A2739"/>
<path d="M177.934 39.6265C178.55 39.3742 179.026 39.2621 179.363 39.2903C179.699 39.3181 179.909 39.4234 179.993 39.6052C180.077 39.7874 180.042 40.0184 179.888 40.2988C179.734 40.5789 179.489 40.8451 179.153 41.0973C178.872 41.2935 178.529 41.5596 178.123 41.8958C177.717 42.232 177.296 42.5891 176.862 42.9674C176.427 43.3454 176.007 43.7168 175.601 44.0812C175.195 44.4452 174.852 44.7396 174.572 44.9636C174.768 46.2805 174.88 47.6183 174.908 48.977C174.936 50.336 174.852 51.6386 174.656 52.8854C174.46 54.1323 174.137 55.2809 173.689 56.3316C173.241 57.3823 172.638 58.2439 171.882 58.9162C170.817 59.8687 169.739 60.4153 168.646 60.5554C167.553 60.6954 166.586 60.5132 165.746 60.0087C164.906 59.5043 164.247 58.7271 163.771 57.6763C163.295 56.6256 163.155 55.3857 163.351 53.957C163.575 52.5001 164.03 51.2115 164.717 50.0907C165.403 48.97 166.125 48.0315 166.881 47.2751C167.778 46.3788 168.744 45.6081 169.781 44.9636C169.753 44.7396 169.697 44.4313 169.613 44.039C169.557 43.7028 169.459 43.2757 169.319 42.7573C169.179 42.239 168.997 41.5736 168.773 40.7611C168.633 40.2849 168.457 39.8296 168.247 39.3951C168.037 38.9611 167.834 38.5897 167.638 38.2817C167.386 37.9173 167.148 37.5954 166.923 37.315C166.475 37.8194 166.013 38.2674 165.536 38.6597C165.144 38.9959 164.71 39.2972 164.234 39.5634C163.757 39.8296 163.309 39.9627 162.889 39.9627C162.441 39.9627 161.936 39.7244 161.376 39.2481C160.816 38.7719 160.318 38.1413 159.884 37.3571C159.45 36.5726 159.113 35.6762 158.875 34.6673C158.637 33.6587 158.602 32.6219 158.77 31.5573C158.966 30.4926 159.219 29.6381 159.527 28.9936C159.835 28.3491 160.171 27.838 160.535 27.4596C160.9 27.0817 161.291 26.8082 161.712 26.6403C162.132 26.472 162.553 26.3459 162.973 26.2619C163.589 26.1497 164.324 26.2341 165.179 26.5141C166.034 26.7942 166.846 27.1517 167.617 27.5858C168.387 28.0202 169.045 28.4682 169.592 28.9305C170.138 29.3928 170.397 29.7499 170.369 30.0021C170.341 30.2543 170.04 30.3453 169.465 30.2752C168.891 30.2052 168.233 30.1143 167.49 30.0021C166.748 29.8899 166.019 29.8338 165.305 29.8338C164.591 29.8338 164.093 30.0578 163.813 30.5062C163.533 30.9546 163.309 31.4869 163.141 32.1032C162.973 32.7195 162.868 33.3361 162.826 33.9524C162.784 34.5687 162.819 35.1362 162.931 35.6546C163.043 36.173 163.253 36.5583 163.561 36.8101C163.729 36.9502 163.96 36.9011 164.254 36.6631C164.548 36.4248 164.892 36.1308 165.284 35.7807C165.677 35.4306 166.111 35.0944 166.587 34.7721C167.063 34.4499 167.575 34.2537 168.121 34.1837C168.667 34.1137 169.235 34.2537 169.823 34.6039C170.412 34.954 171.014 35.6333 171.63 36.6419C171.994 37.2303 172.38 37.9096 172.786 38.6802C173.192 39.4509 173.55 40.5503 173.858 41.979C174.586 41.5307 175.272 41.1036 175.917 40.6973C176.561 40.2911 177.234 39.9337 177.934 39.6257V39.6265ZM169.277 55.0499C169.445 54.5737 169.55 53.9644 169.592 53.2216C169.634 52.4792 169.655 51.7438 169.655 51.0153C169.627 50.1747 169.585 49.2922 169.529 48.3676C168.94 48.8721 168.422 49.4044 167.974 49.9646C167.581 50.4408 167.238 51.0014 166.944 51.6455C166.65 52.29 166.531 52.9763 166.587 53.7048C166.643 54.405 166.797 54.9165 167.049 55.2387C167.301 55.561 167.574 55.7432 167.869 55.785C168.163 55.8271 168.443 55.771 168.709 55.6171C168.975 55.4631 169.165 55.2739 169.277 55.0496V55.0499Z" fill="#0A2739"/>
<path d="M177.304 27.5227C177.892 27.2426 178.452 27.1025 178.985 27.1025C179.517 27.1025 179.979 27.2008 180.371 27.3969C180.764 27.5931 181.072 27.8662 181.296 28.2163C181.52 28.5668 181.618 28.9378 181.59 29.3301C181.366 31.1511 181.38 32.8393 181.633 34.3941C181.885 35.9489 182.221 37.2658 182.641 38.3444C183.061 39.4233 183.503 40.2145 183.965 40.719C184.427 41.2234 184.743 41.3213 184.911 41.013C185.079 40.7047 185.275 40.0535 185.499 39.0589C185.723 38.0643 186.011 36.9645 186.361 35.7601C186.711 34.5554 187.152 33.3716 187.685 32.2087C188.217 31.0462 188.889 30.1425 189.702 29.498C190.514 28.8535 191.215 28.5034 191.803 28.4473C192.391 28.3912 192.895 28.5173 193.316 28.8253C193.736 29.1336 194.093 29.5746 194.387 30.1491C194.681 30.7236 194.955 31.3047 195.207 31.8931C195.459 32.5094 195.69 33.3009 195.9 34.2676C196.111 35.2344 196.335 36.1517 196.573 37.0205C196.811 37.8891 197.063 38.5823 197.329 39.1007C197.595 39.6191 197.925 39.7383 198.317 39.4578C198.569 39.2617 198.835 38.8555 199.115 38.2392C199.395 37.6229 199.697 36.9014 200.019 36.0747C200.341 35.2483 200.691 34.3868 201.07 33.4901C201.448 32.5933 201.861 31.767 202.309 31.0106C202.758 30.2543 203.255 29.6377 203.801 29.1614C204.348 28.6852 204.957 28.4608 205.63 28.4891C206.358 28.5169 207.037 28.7061 207.668 29.0566C208.298 29.4067 208.844 29.8129 209.307 30.2752C209.769 30.7375 210.126 31.2068 210.378 31.6834C210.631 32.1596 210.757 32.5519 210.757 32.8598C210.757 33.1682 210.603 33.3291 210.294 33.3434C209.986 33.3573 209.51 33.126 208.865 32.6498C208.193 32.1735 207.451 32.3206 206.638 33.0912C205.825 33.8618 205.195 35.2414 204.747 37.2306C204.523 38.2113 204.278 39.0868 204.011 39.8574C203.745 40.628 203.423 41.2865 203.045 41.8327C202.666 42.379 202.197 42.8204 201.637 43.1566C201.077 43.4928 200.39 43.7028 199.578 43.7868C198.821 43.8711 198.121 43.7098 197.476 43.3036C196.832 42.8974 196.251 42.3651 195.732 41.7066C195.214 41.0482 194.78 40.3267 194.429 39.5421C194.079 38.7576 193.848 38.0291 193.736 37.3567C193.596 36.7122 193.477 36.2569 193.379 35.9907C193.281 35.7246 193.183 35.6336 193.084 35.7176C192.987 35.8019 192.867 36.0399 192.727 36.4321C192.587 36.8244 192.391 37.3428 192.139 37.9869C191.915 38.6314 191.691 39.276 191.467 39.9201C191.243 40.5646 190.948 41.1596 190.584 41.7062C190.22 42.2525 189.75 42.743 189.176 43.1771C188.602 43.6115 187.839 43.9265 186.886 44.123C185.961 44.3191 185.086 44.3121 184.259 44.1021C183.433 43.892 182.676 43.5628 181.99 43.1144C181.304 42.666 180.694 42.1546 180.162 41.5805C179.629 41.006 179.195 40.4389 178.859 39.8783C178.635 39.5139 178.383 38.9889 178.102 38.3022C177.822 37.6159 177.556 36.8453 177.304 35.9907C177.052 35.1362 176.835 34.2537 176.652 33.343C176.47 32.4324 176.358 31.5778 176.316 30.7793C176.274 29.9808 176.33 29.2876 176.485 28.6991C176.639 28.1107 176.912 27.7185 177.304 27.5223L177.304 27.5227Z" fill="#0A2739"/>
<path d="M221.179 26.6809C221.095 27.045 220.856 27.3463 220.464 27.5846C220.072 27.8229 219.623 28.0678 219.119 28.3201C218.615 28.5723 218.097 28.8524 217.564 29.1607C217.032 29.469 216.584 29.8749 216.22 30.3793C215.659 31.1921 215.267 32.1585 215.043 33.2793C214.819 34.4 214.714 35.4716 214.728 36.4941C214.742 37.5166 214.868 38.3994 215.106 39.1418C215.344 39.8842 215.645 40.2556 216.01 40.2556C216.458 40.2556 216.927 40.0455 217.417 39.6253C217.908 39.2052 218.349 38.7216 218.741 38.1754C219.134 37.6291 219.455 37.0686 219.708 36.4945C219.96 35.92 220.086 35.4789 220.086 35.1706C220.086 34.8623 220.072 34.4352 220.044 33.8889C220.016 33.3427 220.023 32.8034 220.065 32.2711C220.107 31.7387 220.191 31.2764 220.317 30.8842C220.443 30.4919 220.66 30.2818 220.968 30.254C221.277 30.2261 221.648 30.1561 222.082 30.0439C222.517 29.9317 222.93 29.9178 223.322 30.0017C223.714 30.0857 224.03 30.3588 224.268 30.8211C224.506 31.2834 224.597 32.0749 224.541 33.1957C224.457 35.465 224.569 37.1811 224.877 38.3437C225.185 39.5066 225.787 40.1859 226.684 40.382C227.3 40.4942 227.854 40.3468 228.344 39.9406C228.834 39.5344 229.276 39.0791 229.668 38.5746C230.06 38.0702 230.396 37.6148 230.676 37.2086C230.956 36.8024 231.181 36.6411 231.349 36.7251C231.545 36.8094 231.615 37.1595 231.559 37.7758C231.503 38.3921 231.293 39.0853 230.929 39.8559C230.564 40.6266 230.025 41.3968 229.311 42.1675C228.596 42.9381 227.679 43.5335 226.558 43.9536C225.969 44.1776 225.423 44.2898 224.919 44.2898C224.415 44.2898 223.96 44.2198 223.553 44.0797C223.147 43.9397 222.79 43.7435 222.481 43.4913C222.173 43.2391 221.893 42.959 221.641 42.6506C221.081 41.95 220.632 41.0815 220.296 40.0451C220.016 40.7175 219.624 41.3059 219.119 41.8104C218.699 42.2584 218.152 42.6719 217.48 43.0499C216.808 43.4279 215.981 43.6453 215.001 43.7014C214.02 43.7292 213.096 43.4213 212.227 42.7768C211.359 42.1326 210.665 41.2637 210.147 40.1712C209.629 39.0787 209.349 37.8106 209.306 36.368C209.264 34.925 209.58 33.405 210.252 31.808C210.7 30.7713 211.289 29.8888 212.017 29.1604C212.746 28.4319 213.523 27.8365 214.35 27.3742C215.176 26.9119 216.003 26.5757 216.829 26.3657C217.656 26.1556 218.398 26.0364 219.057 26.0086C219.715 25.9807 220.247 26.0295 220.654 26.1556C221.06 26.2817 221.235 26.4569 221.179 26.6809H221.179Z" fill="#0A2739"/>
<path d="M100.815 26.6809C100.731 27.045 100.493 27.3463 100.101 27.5846C99.7084 27.8229 99.2601 28.0678 98.756 28.3201C98.2515 28.5723 97.7335 28.8524 97.2012 29.1607C96.6688 29.469 96.2205 29.8749 95.8564 30.3793C95.2959 31.1921 94.904 32.1585 94.6796 33.2793C94.4556 34.4 94.3504 35.4716 94.3643 36.4941C94.3782 37.5166 94.5043 38.3994 94.7426 39.1418C94.9809 39.8842 95.2819 40.2556 95.6463 40.2556C96.0943 40.2556 96.564 40.0455 97.0542 39.6253C97.5443 39.2052 97.9857 38.7216 98.378 38.1754C98.7703 37.6291 99.0922 37.0686 99.3444 36.4945C99.5966 35.92 99.7227 35.4789 99.7227 35.1706C99.7227 34.8623 99.7088 34.4352 99.6806 33.8889C99.6527 33.3427 99.6597 32.8034 99.7015 32.2711C99.7436 31.7387 99.8276 31.2764 99.9537 30.8842C100.08 30.4919 100.297 30.2818 100.605 30.254C100.913 30.2261 101.285 30.1561 101.719 30.0439C102.153 29.9317 102.567 29.9178 102.959 30.0017C103.351 30.0857 103.666 30.3588 103.904 30.8211C104.143 31.2834 104.234 32.0749 104.177 33.1957C104.094 35.465 104.206 37.1811 104.514 38.3437C104.822 39.5066 105.424 40.1859 106.321 40.382C106.937 40.4942 107.491 40.3468 107.981 39.9406C108.471 39.5344 108.912 39.0791 109.305 38.5746C109.697 38.0702 110.033 37.6148 110.313 37.2086C110.593 36.8024 110.818 36.6411 110.985 36.7251C111.182 36.8094 111.252 37.1595 111.196 37.7758C111.139 38.3921 110.929 39.0853 110.565 39.8559C110.201 40.6266 109.662 41.3968 108.947 42.1675C108.233 42.9381 107.315 43.5335 106.195 43.9536C105.606 44.1776 105.06 44.2898 104.556 44.2898C104.051 44.2898 103.596 44.2198 103.19 44.0797C102.784 43.9397 102.427 43.7435 102.118 43.4913C101.81 43.2391 101.53 42.959 101.278 42.6506C100.717 41.95 100.269 41.0815 99.9328 40.0451C99.6527 40.7175 99.2604 41.3059 98.756 41.8104C98.3358 42.2584 97.7892 42.6719 97.1172 43.0499C96.4448 43.4279 95.6181 43.6453 94.6378 43.7014C93.6571 43.7292 92.7325 43.4213 91.864 42.7768C90.9955 42.1326 90.3019 41.2637 89.7838 40.1712C89.2654 39.0787 88.9853 37.8106 88.9432 36.368C88.901 34.925 89.2163 33.405 89.8887 31.808C90.337 30.7713 90.9255 29.8888 91.6539 29.1604C92.3824 28.4319 93.1596 27.8365 93.9863 27.3742C94.8127 26.9119 95.6394 26.5757 96.4657 26.3657C97.2924 26.1556 98.0348 26.0364 98.6933 26.0086C99.3517 25.9807 99.884 26.0295 100.29 26.1556C100.696 26.2817 100.871 26.4569 100.816 26.6809H100.815Z" fill="#0A2739"/>
<path fill-rule="evenodd" clip-rule="evenodd" d="M20.5996 8.56738H26.3569V26.8009L43.7058 14.9201L46.9588 19.6703L29.6099 31.5511L26.3569 26.8009V26.8897H20.5996V8.56738ZM41.0262 46.3473L44.714 41.8952L29.6099 31.5511L26.3569 36.3014L41.0262 46.3473ZM20.5996 36.2871H26.3569V57.3142H20.5996V36.2871Z" fill="#0A2739"/>
<path fill-rule="evenodd" clip-rule="evenodd" d="M20.0597 51.0161C19.762 50.9145 19.4672 50.8104 19.1732 50.6982C10.0581 47.2297 3.58072 38.4093 3.58072 28.0767C3.58072 14.7136 14.4134 3.88089 27.7765 3.88089C41.1396 3.88089 51.9723 14.7136 51.9723 28.0767C51.9723 40.5977 41.9762 51.3299 29.6792 52.2153C28.8485 52.275 28.0412 52.2758 27.2112 52.2662L27.1665 55.8473C27.6559 55.8525 28.1358 55.8558 28.626 55.8411C43.5739 55.392 55.5538 43.1335 55.5538 28.0767C55.5538 12.7361 43.1175 0.299805 27.7769 0.299805C12.4363 0.299805 0 12.7361 0 28.0767C0 40.3293 7.93316 50.7294 18.9433 54.4197C19.285 54.5345 19.5405 54.614 19.8917 54.6907L20.0604 51.0165L20.0597 51.0161Z" fill="#70A300"/>
</g>
<defs>
<clipPath id="clip0_1930_7612">
<rect width="241.615" height="60.3949" fill="white" transform="translate(0 0.297852)"/>
</clipPath>
</defs>
</svg>
