<svg width="200" height="200" viewBox="0 0 200 200" fill="none" xmlns="http://www.w3.org/2000/svg">
<g clip-path="url(#clip0_408_6174)">
<path d="M200 100.002C200 101.651 199.961 103.29 199.88 104.918C197.746 149.037 167.017 185.653 125.826 196.631C117.587 198.829 108.933 200 100.002 200C44.7738 200 0 155.23 0 100.002C0 44.7738 44.7738 0 100.002 0C155.23 0 200 44.7703 200 100.002Z" fill="#70A300"/>
<g style="mix-blend-mode:multiply">
<path d="M199.88 104.917C197.746 149.037 167.016 185.653 125.825 196.631L69.3105 141.969L155.44 55.8008L199.88 104.917Z" fill="#70A300"/>
</g>
<path d="M77.5325 144.962C74.3397 144.962 71.1468 143.746 68.7135 141.309L41.8098 114.405C36.9397 109.535 36.9397 101.637 41.8098 96.7672C46.68 91.897 54.5777 91.897 59.4479 96.7672L77.5325 114.852L137.159 55.2249C142.03 50.3547 149.927 50.3547 154.798 55.2249C159.668 60.095 159.668 67.9928 154.798 72.8629L86.3516 141.309C83.9147 143.746 80.7254 144.962 77.5325 144.962Z" fill="white"/>
</g>
<defs>
<clipPath id="clip0_408_6174">
<rect width="200" height="200" fill="white"/>
</clipPath>
</defs>
</svg>
